<?xml version="1.0" standalone="no"?>
<!DOCTYPE svg PUBLIC "-//W3C//DTD SVG 20010904//EN"
 "http://www.w3.org/TR/2001/REC-SVG-20010904/DTD/svg10.dtd">
<svg version="1.0" xmlns="http://www.w3.org/2000/svg"
 width="53.87" height="43.61" viewBox="0 0 512.000000 512.000000"
 preserveAspectRatio="xMidYMid meet">

<g transform="translate(0.000000,512.000000) scale(0.100000,-0.100000)"
fill="#000000" stroke="none">
<path d="M3684 4950 c-88 -13 -183 -50 -253 -99 -38 -25 -226 -161 -419 -301
-371 -269 -386 -283 -363 -339 17 -40 49 -51 146 -51 l85 0 0 -640 0 -640
-179 0 c-182 0 -222 -6 -273 -42 l-28 -19 0 566 0 566 25 24 c15 16 36 25 55
25 19 0 40 -9 55 -25 l25 -24 0 -420 c0 -291 3 -428 11 -445 26 -57 115 -55
139 3 7 19 10 156 8 462 -3 401 -4 437 -22 469 -48 90 -119 134 -216 134 -138
0 -228 -91 -238 -241 l-5 -73 -157 0 -158 0 -12 29 c-16 39 -60 58 -99 41 -16
-6 -35 -25 -41 -41 l-12 -29 -318 0 -318 0 -12 29 c-25 62 -115 62 -140 0
l-12 -29 -158 0 -157 0 -5 73 c-10 150 -100 241 -238 241 -97 0 -168 -44 -216
-134 -18 -33 -19 -75 -22 -750 -2 -500 1 -723 8 -741 21 -51 86 -63 125 -24
l25 24 0 711 0 711 25 24 c32 33 78 33 110 0 l25 -24 0 -1656 0 -1655 -80 0
-80 0 0 815 0 816 -25 24 c-38 39 -102 27 -124 -22 -16 -34 -16 -1712 0 -1746
6 -14 22 -30 36 -36 16 -7 156 -11 437 -11 380 0 415 1 434 18 12 9 334 505
717 1102 383 597 705 1093 717 1103 18 15 43 17 194 17 l174 0 0 -80 0 -80
-125 0 c-131 0 -166 -8 -183 -44 -20 -45 -1385 -2162 -1404 -2179 -19 -16 -56
-17 -479 -17 -319 0 -466 -3 -483 -11 -57 -26 -55 -115 3 -139 19 -7 167 -10
501 -8 464 3 476 3 515 25 22 11 51 33 65 47 13 15 101 147 196 294 l171 267
184 5 c101 3 191 9 200 13 9 5 21 19 28 33 15 34 15 354 0 388 -11 23 -40 40
-80 48 -13 2 15 52 115 207 l131 205 5 -565 c3 -310 9 -571 13 -580 15 -30 56
-39 182 -39 l125 0 0 -140 c0 -149 7 -181 47 -199 17 -8 347 -11 1153 -11 806
0 1136 3 1153 11 14 6 30 22 36 36 15 34 15 832 0 866 -22 49 -86 61 -124 22
l-25 -24 0 -376 0 -375 -1040 0 -1040 0 0 1040 0 1040 1040 0 1040 0 0 -535 0
-536 25 -24 c38 -39 102 -27 124 22 15 34 15 1152 0 1186 -18 39 -50 47 -184
47 l-125 0 0 405 c0 279 -3 412 -11 429 -26 55 -112 55 -138 0 -8 -17 -11
-150 -11 -429 l0 -405 -120 0 -120 0 0 345 c0 213 -4 364 -11 397 -36 173
-193 329 -367 367 -162 34 -314 -11 -433 -129 -74 -73 -112 -139 -134 -232
-18 -79 -21 -503 -4 -542 16 -35 61 -52 98 -37 47 20 51 42 51 296 0 215 2
239 22 292 44 119 168 203 298 203 130 0 254 -84 298 -203 21 -55 22 -74 22
-407 l0 -350 -520 0 -520 0 0 800 0 800 720 0 720 0 0 -245 c0 -160 4 -253 11
-269 26 -55 112 -55 138 0 7 16 11 109 11 269 l0 245 85 0 c97 0 129 11 146
51 21 52 1 75 -177 204 -232 167 -244 175 -273 175 -41 -1 -75 -35 -75 -77 0
-40 22 -63 148 -153 l48 -35 -391 -3 c-215 -1 -567 -1 -782 0 l-391 3 149 107
c82 59 207 151 278 204 145 108 205 140 294 155 116 21 224 -13 365 -114 43
-31 90 -57 103 -57 39 0 75 44 71 87 -3 33 -11 44 -78 96 -153 118 -323 171
-476 147z m-2724 -1350 l0 -80 -160 0 -160 0 0 80 0 80 160 0 160 0 0 -80z
m800 0 l0 -80 -320 0 -320 0 0 80 0 80 320 0 320 0 0 -80z m480 0 l0 -80 -160
0 -160 0 0 80 0 80 160 0 160 0 0 -80z m-1280 -1280 l0 -1040 -45 0 c-55 0
-90 -15 -104 -47 -15 -33 -15 -354 0 -387 17 -36 31 -40 162 -46 l119 -5 -51
-77 -51 -78 -175 0 -175 0 0 1360 0 1360 160 0 160 0 0 -1040z m800 278 l0
-763 -178 -277 -177 -277 -142 -1 -143 0 0 1040 0 1040 320 0 320 0 0 -762z
m480 373 l0 -389 -156 -244 c-86 -133 -158 -245 -160 -247 -2 -2 -4 282 -4
632 l0 637 160 0 160 0 0 -389z m320 -1541 l0 -760 -80 0 -80 0 0 639 0 640
78 120 c42 67 78 121 80 121 1 0 2 -342 2 -760z m-1291 -347 c-12 -21 -36 -57
-51 -80 l-29 -43 -114 0 -115 0 0 80 0 80 166 0 166 0 -23 -37z m651 -43 l0
-80 -75 0 -76 0 37 58 c20 31 44 67 52 80 8 12 24 22 38 22 23 0 24 -2 24 -80z"/>
<path d="M3225 3975 c-16 -15 -25 -36 -25 -55 0 -19 9 -40 25 -55 15 -16 36
-25 55 -25 19 0 40 9 55 25 16 15 25 36 25 55 0 19 -9 40 -25 55 -15 16 -36
25 -55 25 -19 0 -40 -9 -55 -25z"/>
<path d="M4185 3975 c-16 -15 -25 -36 -25 -55 0 -19 9 -40 25 -55 15 -16 36
-25 55 -25 19 0 40 9 55 25 16 15 25 36 25 55 0 19 -9 40 -25 55 -15 16 -36
25 -55 25 -19 0 -40 -9 -55 -25z"/>
<path d="M2902 2217 c-50 -53 -13 -137 59 -137 47 0 79 34 79 81 0 71 -90 107
-138 56z"/>
<path d="M4505 2215 c-50 -49 -15 -135 55 -135 41 0 80 39 80 80 0 41 -39 80
-80 80 -19 0 -40 -9 -55 -25z"/>
<path d="M3581 1900 c-83 -22 -165 -57 -198 -86 -33 -28 -39 -73 -14 -106 33
-41 64 -43 138 -8 233 109 473 70 648 -105 115 -114 165 -236 165 -397 0 -159
-51 -281 -164 -394 -114 -114 -235 -164 -396 -164 -161 0 -281 50 -395 165
-110 111 -165 242 -165 395 1 95 12 145 56 243 38 83 38 104 1 145 -47 51
-108 17 -154 -86 -86 -195 -84 -427 6 -617 91 -193 283 -345 495 -390 119 -26
284 -17 393 22 239 86 413 279 469 519 19 85 19 244 -1 331 -59 255 -267 466
-525 533 -101 26 -258 26 -359 0z"/>
<path d="M2902 617 c-50 -53 -13 -137 59 -137 47 0 79 34 79 81 0 71 -90 107
-138 56z"/>
<path d="M4502 617 c-50 -53 -13 -137 59 -137 47 0 79 34 79 81 0 71 -90 107
-138 56z"/>
</g>
</svg>
